<?xml version="1.0" standalone="no"?>
 <!DOCTYPE svg PUBLIC "-//W3C//DTD SVG 1.1//EN" 
 "http://www.w3.org/Graphics/SVG/1.1/DTD/svg11.dtd"> 
<svg xmlns="http://www.w3.org/2000/svg" version="1.1" 
    width="18.1356cm" height="19.3624cm" viewBox="0 0 71400 76230 ">
<title>SVG Picture created as Lily58_Pro-brd.svg date 2019/09/28 15:28:54 </title>
  <desc>Picture generated by PCBNEW </desc>
<g style="fill:#000000; fill-opacity:1;stroke:#000000; stroke-opacity:1;
stroke-linecap:round; stroke-linejoin:round; "
 transform="translate(0 0) scale(1 1)">
</g>
<g style="fill:#000000; fill-opacity:0.0; 
stroke:#000000; stroke-width:-0.000393701; stroke-opacity:1; 
stroke-linecap:round; stroke-linejoin:round;">
</g>
<g style="fill:#008400; fill-opacity:0.0; 
stroke:#008400; stroke-width:-0.000393701; stroke-opacity:1; 
stroke-linecap:round; stroke-linejoin:round;">
</g>
<g style="fill:#008400; fill-opacity:0.0; 
stroke:#008400; stroke-width:59.0551; stroke-opacity:1; 
stroke-linecap:round; stroke-linejoin:round;">
<path d="M42370 28986
L42145 28985
" />
<path d="M42258 28986
L42260 28592
L42223 28648
L42185 28685
L42147 28704
" />
<path d="M42504 28594
L42748 28595
L42616 28744
L42672 28745
L42709 28764
L42728 28783
L42746 28820
L42746 28914
L42727 28951
L42708 28970
L42670 28989
L42558 28988
L42520 28969
L42502 28950
" />
<path d="M42972 28766
L42934 28747
L42916 28728
L42897 28690
L42897 28671
L42916 28634
L42935 28616
L42973 28597
L43048 28598
L43085 28617
L43104 28635
L43122 28673
L43122 28692
L43103 28729
L43084 28748
L43047 28766
L42972 28766
L42934 28784
L42915 28803
L42896 28840
L42896 28915
L42914 28953
L42933 28972
L42970 28991
L43045 28991
L43083 28973
L43101 28954
L43121 28917
L43121 28842
L43103 28804
L43084 28785
L43047 28766
" />
<path d="M43308 28974
L43307 28993
L43288 29031
L43270 29049
" />
<path d="M43554 28601
L43591 28602
L43629 28621
L43647 28639
L43666 28677
L43684 28752
L43683 28846
L43664 28921
L43645 28958
L43626 28977
L43589 28995
L43551 28995
L43514 28976
L43495 28957
L43477 28919
L43459 28844
L43459 28751
L43478 28676
L43497 28638
L43516 28620
L43554 28601
" />
<path d="M43929 28604
L43966 28604
L44004 28623
L44022 28642
L44041 28680
L44059 28755
L44058 28849
L44039 28923
L44020 28961
L44001 28979
L43964 28998
L43926 28998
L43889 28979
L43870 28960
L43852 28922
L43833 28847
L43834 28753
L43853 28678
L43872 28641
L43891 28622
L43929 28604
" />
<path d="M44397 28739
L44395 29001
" />
<path d="M44304 28588
L44208 28868
L44452 28870
" />
<path d="M44901 29005
L44903 28742
" />
<path d="M44903 28780
L44921 28761
L44959 28743
L45015 28743
L45053 28762
L45071 28800
L45070 29006
" />
<path d="M45071 28800
L45090 28762
L45128 28744
L45184 28744
L45221 28763
L45240 28801
L45238 29007
" />
<path d="M45426 29009
L45428 28746
" />
<path d="M45427 28784
L45446 28765
L45484 28746
L45540 28747
L45578 28766
L45596 28804
L45595 29010
" />
<path d="M45596 28804
L45615 28766
L45653 28748
L45709 28748
L45746 28767
L45765 28805
L45763 29011
" />
<path d="M16796 29135
L71127 29528
" />
<path d="M16750 35434
L16797 28904
" />
<path d="M71081 35827
L71128 29298
" />
<path d="M71127 29528
L70681 29756
" />
<path d="M71127 29528
L70685 29294
" />
<path d="M16796 29135
L17238 29369
" />
<path d="M16796 29135
L17241 28907
" />
</g>
<g style="fill:#008400; fill-opacity:0.0; 
stroke:#008400; stroke-width:118.11; stroke-opacity:1; 
stroke-linecap:round; stroke-linejoin:round;">
<path d="M12511 50953
L12511 50616
" />
<path d="M12511 50784
L13101 50784
L13017 50728
L12961 50672
L12933 50616
" />
<path d="M13101 51319
L13101 51375
L13073 51431
L13045 51459
L12989 51487
L12876 51515
L12736 51515
L12623 51487
L12567 51459
L12539 51431
L12511 51375
L12511 51319
L12539 51262
L12567 51234
L12623 51206
L12736 51178
L12876 51178
L12989 51206
L13045 51234
L13073 51262
L13101 51319
" />
<path d="M13101 51712
L13101 52106
L12511 51853
" />
<path d="M12567 52331
L12539 52359
L12511 52331
L12539 52303
L12567 52331
L12511 52331
" />
<path d="M13101 52725
L13101 52781
L13073 52837
L13045 52865
L12989 52893
L12876 52922
L12736 52922
L12623 52893
L12567 52865
L12539 52837
L12511 52781
L12511 52725
L12539 52668
L12567 52640
L12623 52612
L12736 52584
L12876 52584
L12989 52612
L13045 52640
L13073 52668
L13101 52725
" />
<path d="M13101 53287
L13101 53343
L13073 53400
L13045 53428
L12989 53456
L12876 53484
L12736 53484
L12623 53456
L12567 53428
L12539 53400
L12511 53343
L12511 53287
L12539 53231
L12567 53203
L12623 53175
L12736 53147
L12876 53147
L12989 53175
L13045 53203
L13073 53231
L13101 53287
" />
<path d="M13101 53850
L13101 53906
L13073 53962
L13045 53990
L12989 54018
L12876 54046
L12736 54046
L12623 54018
L12567 53990
L12539 53962
L12511 53906
L12511 53850
L12539 53793
L12567 53765
L12623 53737
L12736 53709
L12876 53709
L12989 53737
L13045 53765
L13073 53793
L13101 53850
" />
<path d="M12511 54749
L12905 54749
" />
<path d="M12848 54749
L12876 54778
L12905 54834
L12905 54918
L12876 54974
L12820 55003
L12511 55003
" />
<path d="M12820 55003
L12876 55031
L12905 55087
L12905 55171
L12876 55228
L12820 55256
L12511 55256
" />
<path d="M12511 55537
L12905 55537
" />
<path d="M12848 55537
L12876 55565
L12905 55621
L12905 55706
L12876 55762
L12820 55790
L12511 55790
" />
<path d="M12820 55790
L12876 55818
L12905 55874
L12905 55959
L12876 56015
L12820 56043
L12511 56043
" />
<path d="M13605 32280
L13605 74406
" />
<path d="M14786 32280
L13374 32280
" />
<path d="M14786 74406
L13374 74406
" />
<path d="M13605 74406
L13374 73963
" />
<path d="M13605 74406
L13836 73963
" />
<path d="M13605 32280
L13374 32724
" />
<path d="M13605 32280
L13836 32724
" />
<g >
</g>
<g >
</g>
<g >
</g>
<g >
</g>
<g >
</g>
<g >
</g>
<g >
</g>
<g >
</g>
<g >
</g>
<g >
</g>
<g >
</g>
<g >
</g>
<g >
</g>
<g >
</g>
<g >
</g>
<g >
</g>
<g >
</g>
<g >
</g>
<g >
</g>
<g >
</g>
<g >
</g>
<g >
</g>
<g >
</g>
<g >
</g>
<g >
</g>
<g >
</g>
<g >
</g>
<g >
</g>
<g >
</g>
<g >
</g>
<g >
</g>
<g >
</g>
<g >
</g>
<g >
</g>
<g >
</g>
<g >
</g>
<g >
</g>
<g >
</g>
<g >
</g>
<g >
</g>
<g >
</g>
<g >
</g>
<g >
</g>
<g >
</g>
<g >
</g>
<g >
</g>
<g >
</g>
<g >
</g>
<g >
</g>
<g >
</g>
<g >
</g>
<g >
</g>
<g >
</g>
<g >
</g>
<g >
</g>
<g >
</g>
<g >
</g>
<g >
</g>
<g >
</g>
<g >
</g>
<g >
</g>
<g >
</g>
<g >
</g>
<g >
</g>
<g >
</g>
<g >
</g>
<g >
</g>
<g >
</g>
<g >
</g>
<g >
</g>
<g >
</g>
<g >
</g>
<g >
</g>
<g >
</g>
<g >
</g>
<g >
</g>
<g >
</g>
<g >
</g>
<g >
</g>
<g >
</g>
<g >
</g>
<g >
</g>
<g >
</g>
<g >
</g>
<g >
</g>
<g >
</g>
</g>
<g style="fill:#000000; fill-opacity:0.0; 
stroke:#000000; stroke-width:118.11; stroke-opacity:1; 
stroke-linecap:round; stroke-linejoin:round;">
</g>
<g style="fill:#C2C200; fill-opacity:0.0; 
stroke:#C2C200; stroke-width:118.11; stroke-opacity:1; 
stroke-linecap:round; stroke-linejoin:round;">
</g>
<g style="fill:#C2C200; fill-opacity:0.0; 
stroke:#C2C200; stroke-width:39.3701; stroke-opacity:1; 
stroke-linecap:round; stroke-linejoin:round;">
<path d="M19 19
L19 19
" />
</g>
<g style="fill:#C2C200; fill-opacity:0.0; 
stroke:#C2C200; stroke-width:59.0551; stroke-opacity:1; 
stroke-linecap:round; stroke-linejoin:round;">
<path d="M53049 70827
L53049 65316
" />
<path d="M58561 70827
L53049 70827
" />
<path d="M58561 65316
L58561 70827
" />
<path d="M53049 65316
L58561 65316
" />
<path d="M52262 71615
L52262 64528
" />
<path d="M59349 71615
L52262 71615
" />
<path d="M59349 64528
L59349 71615
" />
<path d="M52262 64528
L59349 64528
" />
<path d="M45530 69194
L45530 63682
" />
<path d="M51042 69194
L45530 69194
" />
<path d="M51042 63682
L51042 69194
" />
<path d="M45530 63682
L51042 63682
" />
<path d="M44742 69981
L44742 62894
" />
<path d="M51829 69981
L44742 69981
" />
<path d="M51829 62894
L51829 69981
" />
<path d="M44742 62894
L51829 62894
" />
<path d="M38010 69194
L38010 63682
" />
<path d="M43522 69194
L38010 69194
" />
<path d="M43522 63682
L43522 69194
" />
<path d="M38010 63682
L43522 63682
" />
<path d="M37223 69981
L37223 62894
" />
<path d="M44309 69981
L37223 69981
" />
<path d="M44309 62894
L44309 69981
" />
<path d="M37223 62894
L44309 62894
" />
<path d="M30502 70864
L29076 65540
" />
<path d="M35826 69437
L30502 70864
" />
<path d="M34400 64113
L35826 69437
" />
<path d="M29076 65540
L34400 64113
" />
<path d="M29945 71828
L28111 64983
" />
<path d="M36791 69994
L29945 71828
" />
<path d="M34956 63149
L36791 69994
" />
<path d="M28111 64983
L34956 63149
" />
<path d="M20056 67917
L24830 65161
" />
<path d="M22812 72690
L20056 67917
" />
<path d="M27586 69935
L22812 72690
" />
<path d="M24830 65161
L27586 69935
" />
<path d="M17997 65924
L24134 62381
" />
<path d="M23508 75471
L17997 65924
" />
<path d="M29646 71928
L23508 75471
" />
<path d="M24134 62381
L29646 71928
" />
<path d="M64290 64174
L64290 58662
" />
<path d="M69801 64174
L64290 64174
" />
<path d="M69801 58662
L69801 64174
" />
<path d="M64290 58662
L69801 58662
" />
<path d="M63502 64961
L63502 57875
" />
<path d="M70589 64961
L63502 64961
" />
<path d="M70589 57875
L70589 64961
" />
<path d="M63502 57875
L70589 57875
" />
<path d="M56790 63583
L56790 58071
" />
<path d="M62301 63583
L56790 63583
" />
<path d="M62301 58071
L62301 63583
" />
<path d="M56790 58071
L62301 58071
" />
<path d="M56002 64371
L56002 57284
" />
<path d="M63089 64371
L56002 64371
" />
<path d="M63089 57284
L63089 64371
" />
<path d="M56002 57284
L63089 57284
" />
<path d="M49270 61733
L49270 56221
" />
<path d="M54782 61733
L49270 61733
" />
<path d="M54782 56221
L54782 61733
" />
<path d="M49270 56221
L54782 56221
" />
<path d="M48482 62520
L48482 55434
" />
<path d="M55569 62520
L48482 62520
" />
<path d="M55569 55434
L55569 62520
" />
<path d="M48482 55434
L55569 55434
" />
<path d="M41790 61182
L41790 55670
" />
<path d="M47301 61182
L41790 61182
" />
<path d="M47301 55670
L47301 61182
" />
<path d="M41790 55670
L47301 55670
" />
<path d="M41002 61969
L41002 54882
" />
<path d="M48089 61969
L41002 61969
" />
<path d="M48089 54882
L48089 61969
" />
<path d="M41002 54882
L48089 54882
" />
<path d="M34270 61733
L34270 56221
" />
<path d="M39782 61733
L34270 61733
" />
<path d="M39782 56221
L39782 61733
" />
<path d="M34270 56221
L39782 56221
" />
<path d="M33482 62520
L33482 55434
" />
<path d="M40569 62520
L33482 62520
" />
<path d="M40569 55434
L40569 62520
" />
<path d="M33482 55434
L40569 55434
" />
<path d="M26790 62638
L26790 57127
" />
<path d="M32301 62638
L26790 62638
" />
<path d="M32301 57127
L32301 62638
" />
<path d="M26790 57127
L32301 57127
" />
<path d="M26002 63426
L26002 56339
" />
<path d="M33089 63426
L26002 63426
" />
<path d="M33089 56339
L33089 63426
" />
<path d="M26002 56339
L33089 56339
" />
<path d="M64270 56694
L64270 51182
" />
<path d="M69782 56694
L64270 56694
" />
<path d="M69782 51182
L69782 56694
" />
<path d="M64270 51182
L69782 51182
" />
<path d="M63482 57481
L63482 50394
" />
<path d="M70569 57481
L63482 57481
" />
<path d="M70569 50394
L70569 57481
" />
<path d="M63482 50394
L70569 50394
" />
<path d="M56790 56103
L56790 50591
" />
<path d="M62301 56103
L56790 56103
" />
<path d="M62301 50591
L62301 56103
" />
<path d="M56790 50591
L62301 50591
" />
<path d="M56002 56890
L56002 49804
" />
<path d="M63089 56890
L56002 56890
" />
<path d="M63089 49804
L63089 56890
" />
<path d="M56002 49804
L63089 49804
" />
<path d="M49270 54213
L49270 48701
" />
<path d="M54782 54213
L49270 54213
" />
<path d="M54782 48701
L54782 54213
" />
<path d="M49270 48701
L54782 48701
" />
<path d="M48482 55001
L48482 47914
" />
<path d="M55569 55001
L48482 55001
" />
<path d="M55569 47914
L55569 55001
" />
<path d="M48482 47914
L55569 47914
" />
<path d="M41790 53701
L41790 48190
" />
<path d="M47301 53701
L41790 53701
" />
<path d="M47301 48190
L47301 53701
" />
<path d="M41790 48190
L47301 48190
" />
<path d="M41002 54489
L41002 47402
" />
<path d="M48089 54489
L41002 54489
" />
<path d="M48089 47402
L48089 54489
" />
<path d="M41002 47402
L48089 47402
" />
<path d="M34270 54213
L34270 48701
" />
<path d="M39782 54213
L34270 54213
" />
<path d="M39782 48701
L39782 54213
" />
<path d="M34270 48701
L39782 48701
" />
<path d="M33482 55001
L33482 47914
" />
<path d="M40569 55001
L33482 55001
" />
<path d="M40569 47914
L40569 55001
" />
<path d="M33482 47914
L40569 47914
" />
<path d="M26790 55158
L26790 49646
" />
<path d="M32301 55158
L26790 55158
" />
<path d="M32301 49646
L32301 55158
" />
<path d="M26790 49646
L32301 49646
" />
<path d="M26002 55945
L26002 48859
" />
<path d="M33089 55945
L26002 55945
" />
<path d="M33089 48859
L33089 55945
" />
<path d="M26002 48859
L33089 48859
" />
<path d="M64270 49134
L64270 43623
" />
<path d="M69782 49134
L64270 49134
" />
<path d="M69782 43623
L69782 49134
" />
<path d="M64270 43623
L69782 43623
" />
<path d="M63482 49922
L63482 42835
" />
<path d="M70569 49922
L63482 49922
" />
<path d="M70569 42835
L70569 49922
" />
<path d="M63482 42835
L70569 42835
" />
<path d="M56790 48544
L56790 43032
" />
<path d="M62301 48544
L56790 48544
" />
<path d="M62301 43032
L62301 48544
" />
<path d="M56790 43032
L62301 43032
" />
<path d="M56002 49331
L56002 42245
" />
<path d="M63089 49331
L56002 49331
" />
<path d="M63089 42245
L63089 49331
" />
<path d="M56002 42245
L63089 42245
" />
<path d="M49270 46694
L49270 41182
" />
<path d="M54782 46694
L49270 46694
" />
<path d="M54782 41182
L54782 46694
" />
<path d="M49270 41182
L54782 41182
" />
<path d="M48482 47481
L48482 40394
" />
<path d="M55569 47481
L48482 47481
" />
<path d="M55569 40394
L55569 47481
" />
<path d="M48482 40394
L55569 40394
" />
<path d="M41790 46182
L41790 40670
" />
<path d="M47301 46182
L41790 46182
" />
<path d="M47301 40670
L47301 46182
" />
<path d="M41790 40670
L47301 40670
" />
<path d="M41002 46969
L41002 39882
" />
<path d="M48089 46969
L41002 46969
" />
<path d="M48089 39882
L48089 46969
" />
<path d="M41002 39882
L48089 39882
" />
<path d="M34270 46733
L34270 41221
" />
<path d="M39782 46733
L34270 46733
" />
<path d="M39782 41221
L39782 46733
" />
<path d="M34270 41221
L39782 41221
" />
<path d="M33482 47520
L33482 40434
" />
<path d="M40569 47520
L33482 47520
" />
<path d="M40569 40434
L40569 47520
" />
<path d="M33482 40434
L40569 40434
" />
<path d="M26790 47678
L26790 42166
" />
<path d="M32301 47678
L26790 47678
" />
<path d="M32301 42166
L32301 47678
" />
<path d="M26790 42166
L32301 42166
" />
<path d="M26002 48465
L26002 41379
" />
<path d="M33089 48465
L26002 48465
" />
<path d="M33089 41379
L33089 48465
" />
<path d="M26002 41379
L33089 41379
" />
<path d="M64270 41694
L64270 36182
" />
<path d="M69782 41694
L64270 41694
" />
<path d="M69782 36182
L69782 41694
" />
<path d="M64270 36182
L69782 36182
" />
<path d="M63482 42481
L63482 35394
" />
<path d="M70569 42481
L63482 42481
" />
<path d="M70569 35394
L70569 42481
" />
<path d="M63482 35394
L70569 35394
" />
<path d="M56790 41103
L56790 35591
" />
<path d="M62301 41103
L56790 41103
" />
<path d="M62301 35591
L62301 41103
" />
<path d="M56790 35591
L62301 35591
" />
<path d="M56002 41890
L56002 34804
" />
<path d="M63089 41890
L56002 41890
" />
<path d="M63089 34804
L63089 41890
" />
<path d="M56002 34804
L63089 34804
" />
<path d="M49270 39213
L49270 33701
" />
<path d="M54782 39213
L49270 39213
" />
<path d="M54782 33701
L54782 39213
" />
<path d="M49270 33701
L54782 33701
" />
<path d="M48482 40001
L48482 32914
" />
<path d="M55569 40001
L48482 40001
" />
<path d="M55569 32914
L55569 40001
" />
<path d="M48482 32914
L55569 32914
" />
<path d="M41790 38666
L41790 33154
" />
<path d="M47301 38666
L41790 38666
" />
<path d="M47301 33154
L47301 38666
" />
<path d="M41790 33154
L47301 33154
" />
<path d="M41002 39453
L41002 32367
" />
<path d="M48089 39453
L41002 39453
" />
<path d="M48089 32367
L48089 39453
" />
<path d="M41002 32367
L48089 32367
" />
<path d="M34270 39213
L34270 33701
" />
<path d="M39782 39213
L34270 39213
" />
<path d="M39782 33701
L39782 39213
" />
<path d="M34270 33701
L39782 33701
" />
<path d="M33482 40001
L33482 32914
" />
<path d="M40569 40001
L33482 40001
" />
<path d="M40569 32914
L40569 40001
" />
<path d="M33482 32914
L40569 32914
" />
<path d="M26790 40158
L26790 34646
" />
<path d="M32301 40158
L26790 40158
" />
<path d="M32301 34646
L32301 40158
" />
<path d="M26790 34646
L32301 34646
" />
<path d="M26002 40945
L26002 33859
" />
<path d="M33089 40945
L26002 40945
" />
<path d="M33089 33859
L33089 40945
" />
<path d="M26002 33859
L33089 33859
" />
<g >
</g>
<g >
</g>
<g >
</g>
<g >
</g>
<g >
</g>
<g >
</g>
<g >
</g>
<g >
</g>
<g >
</g>
<g >
</g>
<g >
</g>
<g >
</g>
<g >
</g>
<g >
</g>
<g >
</g>
<g >
</g>
<g >
</g>
<g >
</g>
<g >
</g>
<g >
</g>
<g >
</g>
<g >
</g>
<g >
</g>
<g >
</g>
<g >
</g>
<g >
</g>
<g >
</g>
<g >
</g>
<g >
</g>
<g >
</g>
<g >
</g>
<g >
</g>
<g >
</g>
<g >
</g>
<g >
</g>
<g >
</g>
<g >
</g>
<g >
</g>
<g >
</g>
<g >
</g>
<g >
</g>
<g >
</g>
<g >
</g>
<g >
</g>
<g >
</g>
<g >
</g>
<g >
</g>
<g >
</g>
<g >
</g>
<g >
</g>
<g >
</g>
<g >
</g>
<g >
</g>
<g >
</g>
<g >
</g>
<g >
</g>
<g >
</g>
<g >
</g>
<g >
</g>
<g >
</g>
<g >
</g>
<g >
</g>
<g >
</g>
<g >
</g>
<g >
</g>
<g >
</g>
<g >
</g>
<g >
</g>
<g >
</g>
<g >
</g>
<g >
</g>
<g >
</g>
<g >
</g>
<g >
</g>
<g >
</g>
<g >
</g>
<g >
</g>
<g >
</g>
<g >
</g>
<g >
</g>
<g >
</g>
<g >
</g>
<g >
</g>
<g >
</g>
<g >
</g>
<g >
</g>
</g>
<g style="fill:#000000; fill-opacity:0.0; 
stroke:#000000; stroke-width:59.0551; stroke-opacity:1; 
stroke-linecap:round; stroke-linejoin:round;">
</g>
<g style="fill:#C2C200; fill-opacity:0.0; 
stroke:#C2C200; stroke-width:59.0551; stroke-opacity:1; 
stroke-linecap:round; stroke-linejoin:round;">
</g>
<g style="fill:#C2C200; fill-opacity:0.0; 
stroke:#C2C200; stroke-width:39.3701; stroke-opacity:1; 
stroke-linecap:round; stroke-linejoin:round;">
<path d="M37189 69835
L29612 71782
" />
<path d="M29612 71782
L23474 75325
" />
<path d="M48048 32201
L48246 32201
" />
<path d="M48246 32201
L50168 32201
" />
<path d="M50168 32201
L55590 32201
" />
<path d="M55590 32201
L70834 34672
" />
<path d="M70834 34672
L70845 65355
" />
<path d="M40737 32201
L48048 32201
" />
<path d="M52149 71902
L44708 69835
" />
<path d="M59236 71902
L52149 71902
" />
<path d="M17963 65778
L16831 63366
" />
<path d="M16831 63366
L16717 32201
" />
<path d="M16717 32201
L23977 32201
" />
<path d="M23977 32201
L31188 32201
" />
<path d="M31188 32201
L33159 32201
" />
<path d="M33159 32201
L39324 32201
" />
<path d="M39324 32201
L40737 32201
" />
<path d="M23474 75325
L17963 65778
" />
<path d="M44708 69835
L37189 69835
" />
<path d="M62829 66000
L59236 71902
" />
<path d="M70845 65355
L62829 66000
" />
<g >
</g>
<g >
</g>
<g >
</g>
<g >
</g>
<g >
</g>
<g >
</g>
<g >
</g>
<g >
</g>
<g >
</g>
<g >
</g>
<g >
</g>
<g >
</g>
<g >
</g>
<g >
</g>
<g >
</g>
<g >
</g>
<g >
</g>
<g >
</g>
<g >
</g>
<g >
</g>
<g >
</g>
<g >
</g>
<g >
</g>
<g >
</g>
<g >
</g>
<g >
</g>
<g >
</g>
<g >
</g>
<g >
</g>
<g >
</g>
<g >
</g>
<g >
</g>
<g >
</g>
<g >
</g>
<g >
</g>
<g >
</g>
<g >
</g>
<g >
</g>
<g >
</g>
<g >
</g>
<g >
</g>
<g >
</g>
<g >
</g>
<g >
</g>
<g >
</g>
<g >
</g>
<g >
</g>
<g >
</g>
<g >
</g>
<g >
</g>
<g >
</g>
<g >
</g>
<g >
</g>
<g >
</g>
<g >
</g>
<g >
</g>
<g >
</g>
<g >
</g>
<g >
</g>
<g >
</g>
<g >
</g>
<g >
</g>
<g >
</g>
<g >
</g>
<g >
</g>
<g >
</g>
<g >
</g>
<g >
</g>
<g >
</g>
<g >
</g>
<g >
</g>
<g >
</g>
<g >
</g>
<g >
</g>
<g >
</g>
<g >
</g>
<g >
</g>
<g >
</g>
<g >
</g>
<g >
</g>
<g >
</g>
<g >
</g>
<g >
</g>
<g >
</g>
<g >
</g>
<g >
</g>
</g> 
</svg>
