  0
SECTION
  2
HEADER
  9
$ACADVER
  1
AC1014
  9
$HANDSEED
  5
FFFF
  9
$MEASUREMENT
 70
     1
  0
ENDSEC
  0
SECTION
  2
TABLES
  0
TABLE
  2
VPORT
  5
8
330
0
100
AcDbSymbolTable
 70
     4
  0
VPORT
  5
2E
330
8
100
AcDbSymbolTableRecord
100
AcDbViewportTableRecord
  2
*ACTIVE
 70
     0
 10
0.0
 20
0.0
 11
1.0
 21
1.0
 12
210.0
 22
148.5
 13
0.0
 23
0.0
 14
10.0
 24
10.0
 15
10.0
 25
10.0
 16
0.0
 26
0.0
 36
1.0
 17
0.0
 27
0.0
 37
0.0
 40
341.0
 41
1.24
 42
50.0
 43
0.0
 44
0.0
 50
0.0
 51
0.0
 71
     0
 72
   100
 73
     1
 74
     3
 75
     0
 76
     0
 77
     0
 78
     0
  0
ENDTAB
  0
TABLE
  2
LTYPE
  5
5
330
0
100
AcDbSymbolTable
 70
     1
  0
LTYPE
  5
14
330
5
100
AcDbSymbolTableRecord
100
AcDbLinetypeTableRecord
  2
BYBLOCK
 70
     0
  3

 72
    65
 73
     0
 40
0.0
  0
LTYPE
  5
15
330
5
100
AcDbSymbolTableRecord
100
AcDbLinetypeTableRecord
  2
BYLAYER
 70
     0
  3

 72
    65
 73
     0
 40
0.0
  0
LTYPE
  5
16
330
5
100
AcDbSymbolTableRecord
100
AcDbLinetypeTableRecord
  2
CONTINUOUS
 70
     0
  3
Solid line
 72
    65
 73
     0
 40
0.0
  0
ENDTAB
  0
TABLE
  2
LAYER
  5
2
100
AcDbSymbolTable
 70
2
  0
LAYER
  5
50
100
AcDbSymbolTableRecord
100
AcDbLayerTableRecord
  2
0
 70
0
  6
CONTINUOUS
  0
LAYER
  5
51
100
AcDbSymbolTableRecord
100
AcDbLayerTableRecord
  2
edge3
 70
0
  6
CONTINUOUS
  0
ENDTAB
  0
TABLE
  2
STYLE
  5
3
330
0
100
AcDbSymbolTable
 70
     1
  0
STYLE
  5
11
330
3
100
AcDbSymbolTableRecord
100
AcDbTextStyleTableRecord
  2
STANDARD
 70
     0
 40
0.0
 41
1.0
 50
0.0
 71
     0
 42
2.5
  3
txt
  4

  0
ENDTAB
  0
TABLE
  2
VIEW
  5
6
330
0
100
AcDbSymbolTable
 70
     0
  0
ENDTAB
  0
TABLE
  2
UCS
  5
7
330
0
100
AcDbSymbolTable
 70
     0
  0
ENDTAB
  0
TABLE
  2
APPID
  5
9
330
0
100
AcDbSymbolTable
 70
     2
  0
APPID
  5
12
330
9
100
AcDbSymbolTableRecord
100
AcDbRegAppTableRecord
  2
ACAD
 70
     0
  0
ENDTAB
  0
TABLE
  2
DIMSTYLE
  5
A
330
0
100
AcDbSymbolTable
 70
     1
  0
DIMSTYLE
105
27
330
A
100
AcDbSymbolTableRecord
100
AcDbDimStyleTableRecord
  2
ISO-25
 70
     0
  3

  4

  5

  6

  7

 40
1.0
 41
2.5
 42
0.625
 43
3.75
 44
1.25
 45
0.0
 46
0.0
 47
0.0
 48
0.0
140
2.5
141
2.5
142
0.0
143
0.03937007874016
144
1.0
145
0.0
146
1.0
147
0.625
 71
     0
 72
     0
 73
     0
 74
     0
 75
     0
 76
     0
 77
     1
 78
     8
170
     0
171
     3
172
     1
173
     0
174
     0
175
     0
176
     0
177
     0
178
     0
270
     2
271
     2
272
     2
273
     2
274
     3
340
11
275
     0
280
     0
281
     0
282
     0
283
     0
284
     8
285
     0
286
     0
287
     3
288
     0
  0
ENDTAB
  0
TABLE
  2
BLOCK_RECORD
  5
1
330
0
100
AcDbSymbolTable
 70
     1
  0
BLOCK_RECORD
  5
1F
330
1
100
AcDbSymbolTableRecord
100
AcDbBlockTableRecord
  2
*MODEL_SPACE
  0
BLOCK_RECORD
  5
1B
330
1
100
AcDbSymbolTableRecord
100
AcDbBlockTableRecord
  2
*PAPER_SPACE
  0
ENDTAB
  0
ENDSEC
  0
SECTION
  2
BLOCKS
  0
BLOCK
  5
20
330
1F
100
AcDbEntity
  8
0
100
AcDbBlockBegin
  2
*MODEL_SPACE
 70
     0
 10
0.0
 20
0.0
 30
0.0
  3
*MODEL_SPACE
  1

  0
ENDBLK
  5
21
330
1F
100
AcDbEntity
  8
0
100
AcDbBlockEnd
  0
BLOCK
  5
1C
330
1B
100
AcDbEntity
 67
     1
  8
0
100
AcDbBlockBegin
  2
*PAPER_SPACE
  1

  0
ENDBLK
  5
1D
330
1B
100
AcDbEntity
 67
     1
  8
0
100
AcDbBlockEnd
  0
ENDSEC
  0
SECTION
  2
ENTITIES
  0
LWPOLYLINE
  5
100
100
AcDbEntity
  8
0
 62
7
100
AcDbPolyline
 90
1
 70
1
 10
-15.323952
 20
52.303565
 30
0.0
  0
SPLINE
  5
101
100
AcDbEntity
  8
edge3
 62
7
100
AcDbSpline
 70
8
 71
3
 72
8
 73
4
 74
0
 40
0
 40
0
 40
0
 40
0
 40
1
 40
1
 40
1
 40
1
 10
130.704710
 20
-98.851154
 30
0.0
 10
130.417451
 20
-98.874265
 30
0.0
 10
130.158675
 20
-99.033665
 30
0.0
 10
130.008803
 20
-99.279816
 30
0.0
  0
LWPOLYLINE
  5
102
100
AcDbEntity
  8
edge3
 62
7
100
AcDbPolyline
 90
2
 70
0
 10
148.489058
 20
-97.420340
 30
0.0
 10
130.704710
 20
-98.851154
 30
0.0
  0
SPLINE
  5
103
100
AcDbEntity
  8
edge3
 62
7
100
AcDbSpline
 70
8
 71
3
 72
8
 73
4
 74
0
 40
0
 40
0
 40
0
 40
0
 40
1
 40
1
 40
1
 40
1
 10
121.960841
 20
-112.497854
 30
0.0
 10
121.797667
 20
-112.765853
 30
0.0
 10
121.506593
 20
-112.929411
 30
0.0
 10
121.192827
 20
-112.929411
 30
0.0
  0
LWPOLYLINE
  5
104
100
AcDbEntity
  8
edge3
 62
7
100
AcDbPolyline
 90
2
 70
0
 10
130.008803
 20
-99.279816
 30
0.0
 10
121.960841
 20
-112.497854
 30
0.0
  0
SPLINE
  5
105
100
AcDbEntity
  8
edge3
 62
7
100
AcDbSpline
 70
8
 71
3
 72
8
 73
4
 74
0
 40
0
 40
0
 40
0
 40
0
 40
1
 40
1
 40
1
 40
1
 10
105.398289
 20
-112.929411
 30
0.0
 10
105.026266
 20
-112.929411
 30
0.0
 10
104.655964
 20
-112.878934
 30
0.0
 10
104.297513
 20
-112.779362
 30
0.0
  0
LWPOLYLINE
  5
106
100
AcDbEntity
  8
edge3
 62
7
100
AcDbPolyline
 90
2
 70
0
 10
121.192827
 20
-112.929411
 30
0.0
 10
105.398289
 20
-112.929411
 30
0.0
  0
SPLINE
  5
107
100
AcDbEntity
  8
edge3
 62
7
100
AcDbSpline
 70
8
 71
3
 72
8
 73
4
 74
0
 40
0
 40
0
 40
0
 40
0
 40
1
 40
1
 40
1
 40
1
 10
88.081461
 20
-108.274781
 30
0.0
 10
87.453448
 20
-108.100329
 30
0.0
 10
86.804668
 20
-108.011892
 30
0.0
 10
86.152875
 20
-108.011892
 30
0.0
  0
LWPOLYLINE
  5
108
100
AcDbEntity
  8
edge3
 62
7
100
AcDbPolyline
 90
2
 70
0
 10
104.297513
 20
-112.779362
 30
0.0
 10
88.081461
 20
-108.274781
 30
0.0
  0
SPLINE
  5
109
100
AcDbEntity
  8
edge3
 62
7
100
AcDbSpline
 70
8
 71
3
 72
8
 73
4
 74
0
 40
0
 40
0
 40
0
 40
0
 40
1
 40
1
 40
1
 40
1
 10
70.425751
 20
-108.011892
 30
0.0
 10
69.647033
 20
-108.011893
 30
0.0
 10
68.875476
 20
-108.160582
 30
0.0
 10
68.152528
 20
-108.449973
 30
0.0
  0
LWPOLYLINE
  5
10a
100
AcDbEntity
  8
edge3
 62
7
100
AcDbPolyline
 90
2
 70
0
 10
86.152875
 20
-108.011892
 30
0.0
 10
70.425751
 20
-108.011892
 30
0.0
  0
SPLINE
  5
10b
100
AcDbEntity
  8
edge3
 62
7
100
AcDbSpline
 70
8
 71
3
 72
8
 73
4
 74
0
 40
0
 40
0
 40
0
 40
0
 40
1
 40
1
 40
1
 40
1
 10
37.341464
 20
-120.783385
 30
0.0
 10
36.926311
 20
-120.949566
 30
0.0
 10
36.452128
 20
-120.785418
 30
0.0
 10
36.228569
 20
-120.398134
 30
0.0
  0
LWPOLYLINE
  5
10c
100
AcDbEntity
  8
edge3
 62
7
100
AcDbPolyline
 90
2
 70
0
 10
68.152528
 20
-108.449973
 30
0.0
 10
37.341464
 20
-120.783385
 30
0.0
  0
SPLINE
  5
10d
100
AcDbEntity
  8
edge3
 62
7
100
AcDbSpline
 70
8
 71
3
 72
8
 73
4
 74
0
 40
0
 40
0
 40
0
 40
0
 40
1
 40
1
 40
1
 40
1
 10
23.760258
 20
-98.798605
 30
0.0
 10
23.591561
 20
-98.506362
 30
0.0
 10
23.435321
 20
-98.207104
 30
0.0
 10
23.291958
 20
-97.901634
 30
0.0
  0
LWPOLYLINE
  5
10e
100
AcDbEntity
  8
edge3
 62
7
100
AcDbPolyline
 90
2
 70
0
 10
36.228569
 20
-120.398134
 30
0.0
 10
23.760258
 20
-98.798605
 30
0.0
  0
SPLINE
  5
10f
100
AcDbEntity
  8
edge3
 62
7
100
AcDbSpline
 70
8
 71
3
 72
8
 73
4
 74
0
 40
0
 40
0
 40
0
 40
0
 40
1
 40
1
 40
1
 40
1
 10
21.029618
 20
-93.081176
 30
0.0
 10
20.887587
 20
-92.778545
 30
0.0
 10
20.813365
 20
-92.448546
 30
0.0
 10
20.812141
 20
-92.114246
 30
0.0
  0
LWPOLYLINE
  5
110
100
AcDbEntity
  8
edge3
 62
7
100
AcDbPolyline
 90
2
 70
0
 10
23.291958
 20
-97.901634
 30
0.0
 10
21.029618
 20
-93.081176
 30
0.0
  0
SPLINE
  5
111
100
AcDbEntity
  8
edge3
 62
7
100
AcDbSpline
 70
8
 71
3
 72
8
 73
4
 74
0
 40
0
 40
0
 40
0
 40
0
 40
1
 40
1
 40
1
 40
1
 10
20.545735
 20
-19.380646
 30
0.0
 10
20.544859
 20
-19.141601
 30
0.0
 10
20.639206
 20
-18.912047
 30
0.0
 10
20.807927
 20
-18.742706
 30
0.0
  0
SPLINE
  5
112
100
AcDbEntity
  8
edge3
 62
7
100
AcDbSpline
 70
8
 71
3
 72
8
 73
4
 74
0
 40
0
 40
0
 40
0
 40
0
 40
1
 40
1
 40
1
 40
1
 10
20.807927
 20
-18.742706
 30
0.0
 10
20.976649
 20
-18.573366
 30
0.0
 10
21.205856
 20
-18.478179
 30
0.0
 10
21.444902
 20
-18.478179
 30
0.0
  0
LWPOLYLINE
  5
113
100
AcDbEntity
  8
edge3
 62
7
100
AcDbPolyline
 90
2
 70
0
 10
20.812141
 20
-92.114246
 30
0.0
 10
20.545735
 20
-19.380646
 30
0.0
  0
SPLINE
  5
114
100
AcDbEntity
  8
edge3
 62
7
100
AcDbSpline
 70
8
 71
3
 72
8
 73
4
 74
0
 40
0
 40
0
 40
0
 40
0
 40
1
 40
1
 40
1
 40
1
 10
111.768693
 20
-18.478179
 30
0.0
 10
112.605384
 20
-18.478179
 30
0.0
 10
113.440721
 20
-18.545447
 30
0.0
 10
114.266631
 20
-18.679334
 30
0.0
  0
LWPOLYLINE
  5
115
100
AcDbEntity
  8
edge3
 62
7
100
AcDbPolyline
 90
10
 70
0
 10
21.444902
 20
-18.478179
 30
0.0
 10
37.815173
 20
-18.478179
 30
0.0
 10
54.970311
 20
-18.478179
 30
0.0
 10
59.659345
 20
-18.478179
 30
0.0
 10
74.326164
 20
-18.478179
 30
0.0
 10
77.689036
 20
-18.478179
 30
0.0
 10
95.081227
 20
-18.478179
 30
0.0
 10
95.553169
 20
-18.478179
 30
0.0
 10
100.126314
 20
-18.478179
 30
0.0
 10
111.768693
 20
-18.478179
 30
0.0
  0
SPLINE
  5
116
100
AcDbEntity
  8
edge3
 62
7
100
AcDbSpline
 70
8
 71
3
 72
8
 73
4
 74
0
 40
0
 40
0
 40
0
 40
0
 40
1
 40
1
 40
1
 40
1
 10
148.535416
 20
-24.234577
 30
0.0
 10
148.970674
 20
-24.305136
 30
0.0
 10
149.290548
 20
-24.680904
 30
0.0
 10
149.290705
 20
-25.121844
 30
0.0
  0
LWPOLYLINE
  5
117
100
AcDbEntity
  8
edge3
 62
7
100
AcDbPolyline
 90
2
 70
0
 10
114.266631
 20
-18.679334
 30
0.0
 10
148.535416
 20
-24.234577
 30
0.0
  0
SPLINE
  5
118
100
AcDbEntity
  8
edge3
 62
7
100
AcDbSpline
 70
8
 71
3
 72
8
 73
4
 74
0
 40
0
 40
0
 40
0
 40
0
 40
1
 40
1
 40
1
 40
1
 10
149.316123
 20
-96.523743
 30
0.0
 10
149.316290
 20
-96.992504
 30
0.0
 10
148.956309
 20
-97.382748
 30
0.0
 10
148.489058
 20
-97.420340
 30
0.0
  0
LWPOLYLINE
  5
119
100
AcDbEntity
  8
edge3
 62
7
100
AcDbPolyline
 90
2
 70
0
 10
149.290705
 20
-25.121844
 30
0.0
 10
149.316123
 20
-96.523743
 30
0.0
  0
LWPOLYLINE
  5
11a
100
AcDbEntity
  8
edge3
 62
7
100
AcDbPolyline
 90
1
 70
1
 10
148.489058
 20
-97.420340
 30
0.0
  0
ENDSEC
  0
SECTION
  2
OBJECTS
  0
DICTIONARY
  5
C
330
0
100
AcDbDictionary
  3
ACAD_GROUP
350
D
  3
ACAD_MLINESTYLE
350
17
  0
DICTIONARY
  5
D
330
C
100
AcDbDictionary
  0
DICTIONARY
  5
1A
330
C
100
AcDbDictionary
  0
DICTIONARY
  5
17
330
C
100
AcDbDictionary
  3
STANDARD
350
18
  0
DICTIONARY
  5
19
330
C
100
AcDbDictionary
  0
ENDSEC
  0
EOF
